<svg width="32" height="32" viewBox="0 0 32 32" fill="none" xmlns="http://www.w3.org/2000/svg">
  <!-- 배경 원 -->
  <circle cx="16" cy="16" r="16" fill="#374151"/>
  
  <!-- 카타나 검신 (자연스러운 곡선) -->
  <path d="M6 14 L22 14 L21 16 L7 16 Z" fill="url(#bladeGradient)" stroke="#6b7280" stroke-width="0.3"/>
  
  <!-- 검날 반짝임 효과 -->
  <path d="M7 14.5 L21 14.5" stroke="#ffffff" stroke-width="0.5" opacity="0.9"/>
  <path d="M7 15.5 L21 15.5" stroke="#ffffff" stroke-width="0.3" opacity="0.7"/>
  
  <!-- 코등이 (자연스러운 원형) -->
  <ellipse cx="7" cy="15" rx="1.5" ry="2" fill="url(#tsubaGradient)" stroke="#6b7280" stroke-width="0.3"/>
  <ellipse cx="7" cy="15" rx="1" ry="1.5" fill="#FFD700" opacity="0.8"/>
  
  <!-- 손잡이 (자연스러운 형태) -->
  <path d="M4 14 L7 14 L7 16 L4 16 Z" fill="url(#handleGradient)" stroke="#6b7280" stroke-width="0.3"/>
  
  <!-- 손잡이 감긴 끈 -->
  <path d="M4.5 14.5 L6.5 14.5" stroke="#FFD700" stroke-width="0.5" stroke-linecap="round"/>
  <path d="M4.5 15.5 L6.5 15.5" stroke="#FFD700" stroke-width="0.5" stroke-linecap="round"/>
  
  <!-- 칼집 (자연스러운 곡선) -->
  <path d="M9 17 L25 17 L24 20 L10 20 Z" fill="url(#scabbardGradient)" stroke="#6b7280" stroke-width="0.3"/>
  
  <!-- 칼집 장식 -->
  <path d="M11 18 L13 18" stroke="#FFD700" stroke-width="1" stroke-linecap="round"/>
  <path d="M15 18 L17 18" stroke="#FFD700" stroke-width="1" stroke-linecap="round"/>
  <path d="M19 18 L21 18" stroke="#FFD700" stroke-width="1" stroke-linecap="round"/>
  <path d="M23 18 L25 18" stroke="#FFD700" stroke-width="1" stroke-linecap="round"/>
  
  <!-- 그라데이션 정의 -->
  <defs>
    <!-- 검신 그라데이션 -->
    <linearGradient id="bladeGradient" x1="0%" y1="0%" x2="100%" y2="0%">
      <stop offset="0%" style="stop-color:#e5e7eb;stop-opacity:1" />
      <stop offset="50%" style="stop-color:#f3f4f6;stop-opacity:1" />
      <stop offset="100%" style="stop-color:#d1d5db;stop-opacity:1" />
    </linearGradient>
    
    <!-- 코등이 그라데이션 -->
    <radialGradient id="tsubaGradient" cx="50%" cy="50%" r="50%">
      <stop offset="0%" style="stop-color:#FFD700;stop-opacity:1" />
      <stop offset="100%" style="stop-color:#FFA500;stop-opacity:1" />
    </radialGradient>
    
    <!-- 손잡이 그라데이션 -->
    <linearGradient id="handleGradient" x1="0%" y1="0%" x2="100%" y2="0%">
      <stop offset="0%" style="stop-color:#8B4513;stop-opacity:1" />
      <stop offset="50%" style="stop-color:#A0522D;stop-opacity:1" />
      <stop offset="100%" style="stop-color:#654321;stop-opacity:1" />
    </linearGradient>
    
    <!-- 칼집 그라데이션 -->
    <linearGradient id="scabbardGradient" x1="0%" y1="0%" x2="100%" y2="0%">
      <stop offset="0%" style="stop-color:#800080;stop-opacity:1" />
      <stop offset="50%" style="stop-color:#9370DB;stop-opacity:1" />
      <stop offset="100%" style="stop-color:#663399;stop-opacity:1" />
    </linearGradient>
  </defs>
</svg>
